<svg width="39" height="45" viewBox="0 0 39 45" fill="none" xmlns="http://www.w3.org/2000/svg">
<path d="M26 0H13V4.28571H26V0ZM17.3333 27.8571H21.6667V15H17.3333V27.8571ZM34.7317 13.6929L37.8083 10.65C36.8767 9.55714 35.8583 8.52857 34.7533 7.62857L31.6767 10.6714C28.3183 8.01429 24.0933 6.42857 19.5 6.42857C8.73167 6.42857 0 15.0643 0 25.7143C0 36.3643 8.71 45 19.5 45C30.29 45 39 36.3643 39 25.7143C39 21.1714 37.3967 16.9929 34.7317 13.6929ZM19.5 40.7143C11.115 40.7143 4.33333 34.0071 4.33333 25.7143C4.33333 17.4214 11.115 10.7143 19.5 10.7143C27.885 10.7143 34.6667 17.4214 34.6667 25.7143C34.6667 34.0071 27.885 40.7143 19.5 40.7143Z" fill="black"/>
</svg>
