<svg width="40" height="39" viewBox="0 0 40 39" fill="none" xmlns="http://www.w3.org/2000/svg">
<path d="M20 4.63125C22.9 4.63125 25.25 6.9225 25.25 9.75C25.25 12.5775 22.9 14.8688 20 14.8688C17.1 14.8688 14.75 12.5775 14.75 9.75C14.75 6.9225 17.1 4.63125 20 4.63125ZM20 26.5687C27.425 26.5687 35.25 30.1275 35.25 31.6875V34.3688H4.75V31.6875C4.75 30.1275 12.575 26.5687 20 26.5687ZM20 0C14.475 0 10 4.36312 10 9.75C10 15.1369 14.475 19.5 20 19.5C25.525 19.5 30 15.1369 30 9.75C30 4.36312 25.525 0 20 0ZM20 21.9375C13.325 21.9375 0 25.2037 0 31.6875V39H40V31.6875C40 25.2037 26.675 21.9375 20 21.9375Z" fill="black"/>
</svg>
