<svg width="43" height="43" viewBox="0 0 43 43" fill="none" xmlns="http://www.w3.org/2000/svg">
<path d="M21.5 0C9.632 0 0 9.632 0 21.5C0 33.368 9.632 43 21.5 43C33.368 43 43 33.368 43 21.5C43 9.632 33.368 0 21.5 0ZM19.35 38.5495C10.8575 37.496 4.3 30.272 4.3 21.5C4.3 20.167 4.472 18.8985 4.7515 17.6515L15.05 27.95V30.1C15.05 32.465 16.985 34.4 19.35 34.4V38.5495ZM34.185 33.0885C33.626 31.347 32.035 30.1 30.1 30.1H27.95V23.65C27.95 22.4675 26.9825 21.5 25.8 21.5H12.9V17.2H17.2C18.3825 17.2 19.35 16.2325 19.35 15.05V10.75H23.65C26.015 10.75 27.95 8.815 27.95 6.45V5.5685C34.2495 8.127 38.7 14.2975 38.7 21.5C38.7 25.972 36.98 30.0355 34.185 33.0885Z" fill="black"/>
</svg>
